<svg xmlns="http://www.w3.org/2000/svg" viewBox="0 0 1600 1510" width="1600" height="1510" font-family="&#39;Comic Sans MS&#39;,&#39;Comic Neue&#39;,&#39;Chalkboard SE&#39;,sans-serif">
  <defs>
    <filter id="soft" x="-20%" y="-20%" width="140%" height="140%">
      <feDropShadow dx="0" dy="6" stdDeviation="6" flood-color="#000" flood-opacity="0.45"></feDropShadow>
    </filter>
    <filter id="glow" x="-60%" y="-60%" width="220%" height="220%">
      <feGaussianBlur stdDeviation="7" result="b"></feGaussianBlur>
      <feMerge><feMergeNode in="b"></feMergeNode><feMergeNode in="SourceGraphic"></feMergeNode></feMerge>
    </filter>
    <linearGradient id="aiwall" x1="0" y1="0" x2="1" y2="1">
      <stop offset="0" stop-color="#2a1140"></stop>
      <stop offset="1" stop-color="#0b2b3a"></stop>
    </linearGradient>
    
  </defs>

  
  <rect width="1600" height="1510" fill="#0d1017"></rect>

  
  <rect x="26" y="20" width="14" height="74" fill="#22d3ee"></rect>
  <text x="56" y="66" font-weight="700" class="head" font-size="52" fill="#f2f4fa">THE CALCULATOR AISLE</text>
  <text x="58" y="96" font-size="21" fill="#8b93a7">A CALIBRATION SCOPE short · field notes from 2026</text>

  
  <g filter="url(#soft)">
    <rect fill="#12151f" class="panel" x="26" y="112" width="1148" height="470" rx="14"></rect>
  </g>
  <clipPath id="clipA"><rect x="26" y="112" width="1148" height="470" rx="14"></rect></clipPath>
  <g clip-path="url(#clipA)">
    
    <rect x="26" y="112" width="1148" height="470" fill="#12151f"></rect>
    <polygon points="26,500 1174,500 1174,582 26,582" fill="#1c212e"></polygon>
    <line x1="26" y1="500" x2="1174" y2="500" stroke="#2b3143" stroke-width="3"></line>
    
    <rect x="470" y="128" width="260" height="46" rx="8" fill="#12263f" stroke="#22d3ee" stroke-width="2.5"></rect>
    <text x="600" y="159" text-anchor="middle" font-weight="700" class="head" font-size="26" fill="#dbeafe">CALCULATORS</text>

    
    <rect x="58" y="196" width="360" height="286" rx="10" fill="#10221b" stroke="#34d399" stroke-width="2.5"></rect>
    <rect x="58" y="196" width="360" height="34" rx="10" fill="#123a2c"></rect>
    <text x="238" y="220" text-anchor="middle" font-weight="700" class="head" font-size="19" fill="#6ee7b7">VALIDATED · ABACUS</text>
    
    <line x1="72" y1="392" x2="404" y2="392" stroke="#2f5c4a" stroke-width="6"></line>
    
    <g stroke="#8b5a2b" stroke-width="6" fill="none">
      <rect x="96" y="252" width="248" height="120" rx="8" fill="#5c3a1e"></rect>
    </g>
    <g stroke="#3a2412" stroke-width="4">
      <line x1="108" y1="278" x2="332" y2="278"></line>
      <line x1="108" y1="312" x2="332" y2="312"></line>
      <line x1="108" y1="346" x2="332" y2="346"></line>
    </g>
    <g fill="#e8b04b" stroke="#7a5416" stroke-width="2">
      <circle cx="130" cy="278" r="9"></circle><circle cx="152" cy="278" r="9"></circle><circle cx="300" cy="278" r="9"></circle>
      <circle cx="140" cy="312" r="9"></circle><circle cx="290" cy="312" r="9"></circle><circle cx="312" cy="312" r="9"></circle>
      <circle cx="122" cy="346" r="9"></circle><circle cx="200" cy="346" r="9"></circle><circle cx="278" cy="346" r="9"></circle>
    </g>
    
    <rect x="150" y="404" width="150" height="70" rx="8" fill="#20303a" stroke="#4b6b74" stroke-width="2.5"></rect>
    <rect x="164" y="414" width="122" height="22" rx="3" fill="#9fe8b5"></rect>
    <text x="278" y="431" text-anchor="end" font-size="16" fill="#0d1a12" font-weight="bold">= 4</text>
    <g fill="#33505b"><rect x="164" y="444" width="18" height="12" rx="2"></rect><rect x="190" y="444" width="18" height="12" rx="2"></rect><rect x="216" y="444" width="18" height="12" rx="2"></rect><rect x="242" y="444" width="18" height="12" rx="2"></rect><rect x="268" y="444" width="18" height="12" rx="2"></rect></g>
    <text x="238" y="470" text-anchor="middle" font-size="15" fill="#6ee7b7">deterministic · boring · right</text>

    
    <rect x="770" y="196" width="360" height="286" rx="10" fill="url(#aiwall)" stroke="#f472b6" stroke-width="2.5"></rect>
    <rect x="770" y="196" width="360" height="34" rx="10" fill="#3a0f4d"></rect>
    <text x="950" y="220" text-anchor="middle" font-weight="700" class="head" font-size="19" fill="#f0abfc" filter="url(#glow)">✦ THE X-3000 ✦</text>
    
    <g filter="url(#glow)">
      <rect x="838" y="252" width="224" height="196" rx="12" fill="#141a33" stroke="#22d3ee" stroke-width="3"></rect>
    </g>
    <text x="950" y="316" text-anchor="middle" font-weight="700" class="head" font-size="46" fill="#22d3ee">X3000</text>
    <text x="950" y="344" text-anchor="middle" font-size="18" fill="#f0abfc" font-weight="bold">A.I. CALCULATOR</text>
    
    <g transform="translate(1052,268)">
      <rect x="-30" y="-30" width="60" height="60" rx="6" fill="#fbbf24" transform="rotate(20)"></rect>
      <rect x="-30" y="-30" width="60" height="60" rx="6" fill="#fbbf24" transform="rotate(65)"></rect>
      <text x="0" y="-2" text-anchor="middle" font-size="10" fill="#7a2e00" font-weight="700" class="head">AS SEEN</text>
      <text x="0" y="12" text-anchor="middle" font-size="11" fill="#7a2e00" font-weight="700" class="head">ON TV</text>
    </g>
    <text x="950" y="382" text-anchor="middle" font-size="9.5" letter-spacing="-0.2" fill="#a5f3fc">✦ NEURAL ✦ SMART ✦ NOW WITH VIBES</text>
    
    <rect x="822" y="396" width="256" height="52" rx="8" fill="#3a0e12" stroke="#f87171" stroke-width="2"></rect>
    <path d="M846 407 L835 429 L857 429 z" fill="#f87171"></path>
    <text x="846" y="426" text-anchor="middle" font-size="14" fill="#3a0e12" font-weight="700">!</text>
    <text x="874" y="419" font-size="12.5" fill="#fecaca">AI can make mistakes.</text>
    <text x="874" y="438" font-size="12.5" fill="#fecaca">Double-check the math.</text>
    <text x="950" y="470" text-anchor="middle" font-size="15" fill="#f0abfc">$499.⁹⁹ · batteries and certainty not included</text>

    
    <g transform="translate(600,300)">
      
      <rect x="-52" y="118" width="104" height="120" rx="20" fill="#2b3a63"></rect>
      <rect x="-40" y="188" width="34" height="60" rx="8" fill="#232838"></rect>
      <rect x="6" y="188" width="34" height="60" rx="8" fill="#232838"></rect>
      
      <rect x="-52" y="118" width="104" height="86" rx="18" fill="#3b7d86"></rect>
      <polygon points="-14,118 0,146 14,118" fill="#2c5f66"></polygon>
      <line x1="0" y1="122" x2="0" y2="200" stroke="#2c5f66" stroke-width="3"></line>
      
      <rect x="14" y="150" width="30" height="34" rx="3" fill="#eef2f7"></rect>
      <rect x="20" y="145" width="4" height="16" fill="#ef4444"></rect><rect x="28" y="145" width="4" height="16" fill="#3b82f6"></rect>
      
      <rect x="-70" y="150" width="26" height="60" rx="12" fill="#3b7d86" transform="rotate(14 -57 180)"></rect>
      <rect x="44" y="150" width="26" height="60" rx="12" fill="#3b7d86" transform="rotate(-14 57 180)"></rect>
      
      <g transform="translate(0,196)">
        <rect x="-46" y="-14" width="92" height="60" rx="4" fill="#f5f1e6" stroke="#111" stroke-width="2" transform="rotate(-4)"></rect>
        <text x="-30" y="6" font-size="15" fill="#14161f" font-weight="bold" transform="rotate(-4)">∫ x² dx</text>
        <text x="-30" y="28" font-size="15" fill="#c026d3" transform="rotate(-4)">= ??</text>
      </g>
      
      <rect x="-12" y="104" width="24" height="20" fill="#e0a877"></rect>
      <ellipse cx="0" cy="66" rx="46" ry="50" fill="#e8b98f"></ellipse>
      
      <path d="M-46 58 q-4 -56 46 -56 q50 0 46 56 q-20 -26 -46 -26 q-26 0 -46 26 z" fill="#2f2620"></path>
      
      <g stroke="#d7dce6" stroke-width="4" fill="#0f1420" fill-opacity="0.25">
        <rect x="-38" y="52" width="30" height="26" rx="8"></rect>
        <rect x="8" y="52" width="30" height="26" rx="8"></rect>
        <line x1="-8" y1="62" x2="8" y2="62"></line>
      </g>
      <circle cx="-23" cy="66" r="4" fill="#14161f"></circle>
      <circle cx="23" cy="66" r="4" fill="#14161f"></circle>
      <path d="M-12 92 q12 8 24 0" stroke="#7a4a2a" stroke-width="3" fill="none"></path>
    </g>

    
    <g filter="url(#soft)">
      <rect fill="#f5f1e6" stroke="#0f1420" stroke-width="3" class="bubble" x="430" y="184" width="340" height="104" rx="18"></rect>
      <path d="M586 286 L600 318 L614 286 z" fill="#f5f1e6" stroke="#0f1420" stroke-width="3" class="bubble"></path>
    </g>
    <text x="600" y="222" text-anchor="middle" fill="#14161f" font-size="22" class="dlg">One math problem.</text>
    <text x="600" y="250" text-anchor="middle" fill="#14161f" font-size="22" class="dlg">One calculator. How hard</text>
    <text x="600" y="278" text-anchor="middle" fill="#14161f" font-size="22" class="dlg">could this possibly be?</text>
  </g>

  
  <g filter="url(#soft)"><rect fill="#12151f" class="panel" x="26" y="604" width="368" height="572" rx="14"></rect></g>
  <clipPath id="clipB"><rect x="26" y="604" width="368" height="572" rx="14"></rect></clipPath>
  <g clip-path="url(#clipB)">
    <rect x="26" y="604" width="368" height="572" fill="url(#aiwall)"></rect>
    <text x="210" y="648" text-anchor="middle" font-weight="700" class="head" font-size="20" fill="#f0abfc">so you read the fine print…</text>
    <g filter="url(#glow)"><rect x="66" y="676" width="288" height="360" rx="16" fill="#141a33" stroke="#22d3ee" stroke-width="3"></rect></g>
    <text x="210" y="770" text-anchor="middle" font-weight="700" class="head" font-size="66" fill="#22d3ee">X3000</text>
    <text x="210" y="806" text-anchor="middle" font-size="22" fill="#f0abfc" font-weight="bold">A.I. CALCULATOR™</text>
    <text x="210" y="844" text-anchor="middle" font-size="17" fill="#a5f3fc">✦ 9 out of 10 numbers agree ✦</text>
    
    <rect x="88" y="858" width="244" height="122" rx="12" fill="#3a0e12" stroke="#f87171" stroke-width="3"></rect>
    <path d="M210 866 L192 896 L228 896 z" fill="#f87171"></path>
    <text x="210" y="891" text-anchor="middle" font-size="22" fill="#3a0e12" font-weight="700">!</text>
    <text x="210" y="924" text-anchor="middle" font-size="16" fill="#fecaca" font-weight="700">AI can make mistakes.</text>
    <text x="210" y="946" text-anchor="middle" font-size="16" fill="#fecaca" font-weight="700">Please double-check</text>
    <text x="210" y="968" text-anchor="middle" font-size="16" fill="#fecaca" font-weight="700">your math.</text>
    <text x="210" y="1002" text-anchor="middle" font-size="16" fill="#f0abfc">…on the machine whose</text>
    <text x="210" y="1022" text-anchor="middle" font-size="16" fill="#f0abfc">one job is the math.</text>
  </g>

  
  <g filter="url(#soft)"><rect fill="#12151f" class="panel" x="416" y="604" width="368" height="572" rx="14"></rect></g>
  <clipPath id="clipC"><rect x="416" y="604" width="368" height="572" rx="14"></rect></clipPath>
  <g clip-path="url(#clipC)">
    <rect x="416" y="604" width="368" height="572" fill="#161a26"></rect>
    
    <g filter="url(#soft)">
      <rect fill="#f5f1e6" stroke="#0f1420" stroke-width="3" class="bubble" x="442" y="636" width="316" height="150" rx="18"></rect>
      <path d="M600 782 l-16 40 l38 -22 z" fill="#f5f1e6" stroke="#0f1420" stroke-width="3" class="bubble"></path>
    </g>
    <text x="600" y="678" text-anchor="middle" fill="#14161f" font-size="27" font-weight="700" class="dlgb">Let me get</text>
    <text x="600" y="706" text-anchor="middle" fill="#14161f" font-size="27" font-weight="700" class="dlgb">this straight —</text>
    <text x="600" y="742" text-anchor="middle" fill="#14161f" font-size="22" class="dlg">it warns me it&#39;s wrong…</text>
    <text x="600" y="772" text-anchor="middle" fill="#14161f" font-size="22" class="dlg">and it&#39;s the pricey one?</text>
    
    <g transform="translate(600,900)">
      <rect x="-70" y="120" width="140" height="120" rx="24" fill="#3b7d86"></rect>
      <polygon points="-16,120 0,150 16,120" fill="#2c5f66"></polygon>
      <rect x="18" y="150" width="30" height="34" rx="3" fill="#eef2f7"></rect>
      <rect x="24" y="146" width="4" height="16" fill="#ef4444"></rect><rect x="32" y="146" width="4" height="16" fill="#3b82f6"></rect>
      <rect x="-14" y="96" width="28" height="24" fill="#e0a877"></rect>
      <ellipse cx="0" cy="52" rx="54" ry="58" fill="#e8b98f"></ellipse>
      <path d="M-54 44 q-4 -64 54 -64 q58 0 54 64 q-24 -30 -54 -30 q-30 0 -54 30 z" fill="#2f2620"></path>
      <g stroke="#d7dce6" stroke-width="5" fill="#0f1420" fill-opacity="0.25">
        <rect x="-46" y="38" width="36" height="30" rx="9"></rect>
        <rect x="10" y="38" width="36" height="30" rx="9"></rect>
        <line x1="-10" y1="50" x2="10" y2="50"></line>
      </g>
      
      <line x1="-34" y1="54" x2="-20" y2="54" stroke="#14161f" stroke-width="5" stroke-linecap="round"></line>
      <line x1="20" y1="54" x2="34" y2="54" stroke="#14161f" stroke-width="5" stroke-linecap="round"></line>
      <line x1="-16" y1="86" x2="16" y2="86" stroke="#7a4a2a" stroke-width="4" stroke-linecap="round"></line>
      
      <path d="M44 34 q10 16 0 22 q-10 -6 0 -22 z" fill="#7dd3fc"></path>
    </g>
  </g>

  
  <g filter="url(#soft)"><rect fill="#12151f" class="panel" x="806" y="604" width="368" height="572" rx="14"></rect></g>
  <clipPath id="clipD"><rect x="806" y="604" width="368" height="572" rx="14"></rect></clipPath>
  <g clip-path="url(#clipD)">
    <rect x="806" y="604" width="368" height="572" fill="#10221b"></rect>
    <text x="990" y="656" text-anchor="middle" font-weight="700" class="head" font-size="22" fill="#6ee7b7">meanwhile, on the</text>
    <text x="990" y="684" text-anchor="middle" font-weight="700" class="head" font-size="22" fill="#6ee7b7">shelf next door…</text>
    
    <g transform="translate(990,860)">
      <rect x="-140" y="-70" width="280" height="150" rx="12" fill="#5c3a1e" stroke="#8b5a2b" stroke-width="6"></rect>
      <g stroke="#3a2412" stroke-width="5">
        <line x1="-120" y1="-34" x2="120" y2="-34"></line>
        <line x1="-120" y1="6" x2="120" y2="6"></line>
        <line x1="-120" y1="46" x2="120" y2="46"></line>
      </g>
      <g fill="#e8b04b" stroke="#7a5416" stroke-width="2">
        <circle cx="-96" cy="-34" r="12"></circle><circle cx="-64" cy="-34" r="12"></circle><circle cx="92" cy="-34" r="12"></circle>
        <circle cx="-80" cy="6" r="12"></circle><circle cx="78" cy="6" r="12"></circle><circle cx="110" cy="6" r="12"></circle>
        <circle cx="-104" cy="46" r="12"></circle><circle cx="10" cy="46" r="12"></circle><circle cx="96" cy="46" r="12"></circle>
      </g>
      
      <g transform="translate(0,-108)">
        <path d="M-22 6 q0 -22 22 -22 q22 0 22 22 z" fill="none" stroke="#6ee7b7" stroke-width="3"></path>
        <line x1="-12" y1="-6" x2="-4" y2="-6" stroke="#6ee7b7" stroke-width="4" stroke-linecap="round"></line>
        <line x1="4" y1="-6" x2="12" y2="-6" stroke="#6ee7b7" stroke-width="4" stroke-linecap="round"></line>
        <path d="M-10 4 q10 8 20 0" stroke="#6ee7b7" stroke-width="4" fill="none" stroke-linecap="round"></path>
      </g>
    </g>
    
    <rect x="836" y="984" width="308" height="150" rx="14" fill="#0d1017" stroke="#34d399" stroke-width="2.5"></rect>
    <text x="990" y="1024" text-anchor="middle" font-weight="700" class="head" font-size="22" fill="#e8f7ef">2026:</text>
    <text x="990" y="1058" text-anchor="middle" font-size="19" fill="#cbead9">buying the calculator that</text>
    <text x="990" y="1084" text-anchor="middle" font-size="19" fill="#cbead9">warns you it can&#39;t calculate.</text>
    <text x="990" y="1118" text-anchor="middle" font-size="17" fill="#6ee7b7" font-style="italic">The abacus remains undefeated.</text>
  </g>

  
  <g filter="url(#soft)"><rect fill="#12151f" class="panel" x="26" y="1192" width="1148" height="250" rx="14"></rect></g>
  <clipPath id="clipE"><rect x="26" y="1192" width="1148" height="250" rx="14"></rect></clipPath>
  <g clip-path="url(#clipE)">
    <rect x="26" y="1192" width="1148" height="250" fill="#0f1320"></rect>
    <rect x="44" y="1208" width="238" height="30" rx="15" fill="#123a2c"></rect>
    <text x="58" y="1230" font-size="15" font-weight="700" class="chip" fill="#6ee7b7">⑤ ONE LAST THING</text>
    <line x1="600" y1="1256" x2="600" y2="1420" stroke="#2b3143" stroke-width="2" stroke-dasharray="4 6"></line>

    <g transform="translate(250,1384)">
      <g stroke="#2f5c4a" stroke-width="5" stroke-linecap="round">
        <line x1="-150" y1="-40" x2="-108" y2="-40"></line>
        <line x1="-162" y1="-8" x2="-112" y2="-8"></line>
        <line x1="-150" y1="24" x2="-108" y2="24"></line>
      </g>
      <rect x="-30" y="34" width="20" height="40" rx="6" fill="#232838" transform="rotate(14 -20 34)"></rect>
      <rect x="8" y="34" width="20" height="40" rx="6" fill="#232838" transform="rotate(-8 18 34)"></rect>
      <rect x="-42" y="-32" width="84" height="70" rx="18" fill="#3b7d86"></rect>
      <g transform="translate(30,2) rotate(-7)">
        <rect x="0" y="0" width="84" height="50" rx="6" fill="#5c3a1e" stroke="#8b5a2b" stroke-width="4"></rect>
        <line x1="10" y1="16" x2="74" y2="16" stroke="#3a2412" stroke-width="3"></line>
        <line x1="10" y1="34" x2="74" y2="34" stroke="#3a2412" stroke-width="3"></line>
        <g fill="#e8b04b" stroke="#7a5416" stroke-width="1.5">
          <circle cx="24" cy="16" r="6"></circle><circle cx="42" cy="16" r="6"></circle><circle cx="64" cy="16" r="6"></circle>
          <circle cx="20" cy="34" r="6"></circle><circle cx="52" cy="34" r="6"></circle><circle cx="68" cy="34" r="6"></circle>
        </g>
      </g>
      <rect x="24" y="-6" width="24" height="42" rx="12" fill="#3b7d86"></rect>
      <rect x="-12" y="-46" width="24" height="20" fill="#e0a877"></rect>
      <ellipse cx="0" cy="-78" rx="38" ry="42" fill="#e8b98f"></ellipse>
      <path d="M-38 -84 q-4 -48 38 -48 q42 0 38 48 q-18 -22 -38 -22 q-20 0 -38 22 z" fill="#2f2620"></path>
      <g stroke="#d7dce6" stroke-width="4" fill="#0f1420" fill-opacity="0.25">
        <rect x="-32" y="-84" width="26" height="22" rx="7"></rect>
        <rect x="6" y="-84" width="26" height="22" rx="7"></rect>
        <line x1="-6" y1="-74" x2="6" y2="-74"></line>
      </g>
      <circle cx="-19" cy="-73" r="3.5" fill="#14161f"></circle>
      <circle cx="19" cy="-73" r="3.5" fill="#14161f"></circle>
      <path d="M-13 -50 q13 13 26 0" stroke="#7a4a2a" stroke-width="3" fill="none" stroke-linecap="round"></path>
    </g>
    <g filter="url(#soft)">
      <rect fill="#f5f1e6" stroke="#0f1420" stroke-width="3" class="bubble" x="330" y="1266" width="236" height="66" rx="16"></rect>
      <path d="M330 1300 l-26 10 l20 18 z" fill="#f5f1e6" stroke="#0f1420" stroke-width="3" class="bubble"></path>
    </g>
    <text x="448" y="1294" text-anchor="middle" fill="#14161f" font-size="19" class="dlg">Worth every penny</text>
    <text x="448" y="1318" text-anchor="middle" fill="#14161f" font-size="19" class="dlg">I didn&#39;t spend.</text>

    <text x="888" y="1240" text-anchor="middle" font-weight="700" class="head" font-size="16" fill="#f0abfc">…back on the shelf, the X-3000 boots up:</text>
    <g filter="url(#glow)"><rect x="740" y="1262" width="296" height="118" rx="12" fill="#141a33" stroke="#22d3ee" stroke-width="3"></rect></g>
    <text x="888" y="1312" text-anchor="middle" font-weight="700" class="head" font-size="27" fill="#22d3ee">CONFIDENCE 99%</text>
    <text x="888" y="1348" text-anchor="middle" font-size="17" fill="#f0abfc">* that this answer is wrong.</text>
    <path d="M1022 1258 q10 15 0 21 q-10 -6 0 -21 z" fill="#7dd3fc"></path>
    <text x="888" y="1414" text-anchor="middle" font-size="16" fill="#8b93a7" font-style="italic">It isn&#39;t unsure. It&#39;s certain — about the wrong thing.</text>
  </g>

  
  <g font-family="&#39;SF Mono&#39;,&#39;Menlo&#39;,&#39;Consolas&#39;,monospace">
    <rect x="1200" y="112" width="384" height="1330" rx="16" fill="#0a0d15" stroke="#22d3ee" stroke-opacity="0.35" stroke-width="2"></rect>
    <rect x="1214" y="126" width="356" height="40" rx="10" fill="#141a33"></rect>
    <circle cx="1234" cy="146" r="5" fill="#f87171"></circle>
    <circle cx="1252" cy="146" r="5" fill="#fbbf24"></circle>
    <circle cx="1270" cy="146" r="5" fill="#34d399"></circle>
    <text x="1556" y="151" text-anchor="end" font-size="12.5" fill="#8b93a7">x3000.load()</text>

    <text x="1224" y="203" font-size="18" font-weight="700" fill="#22d3ee">⚙ INFERENCE CONFIG</text>
    <text x="1224" y="227" font-size="12.5" fill="#8b93a7" font-style="italic">the knobs that ship “certainty not included”</text>

    <rect x="1218" y="244" width="348" height="88" rx="8" fill="#10151f" stroke="#232a3b" stroke-width="1.5"></rect>
    <text x="1234" y="270" font-size="13" fill="#8b93a7">model</text><text x="1300" y="270" font-size="13" fill="#7dd3fc">x3000-instruct.Q4_K_M.gguf</text>
    <text x="1234" y="294" font-size="13" fill="#8b93a7">arch</text><text x="1300" y="294" font-size="13" fill="#e6e9f2">llama · 0.9B · quant Q4</text>
    <text x="1234" y="318" font-size="13" fill="#8b93a7">n_ctx</text><text x="1300" y="318" font-size="13" fill="#e6e9f2">4096</text>

    <text x="1224" y="372" font-size="14" font-weight="700" fill="#f0abfc">▸ SAMPLING</text>
    <text x="1224" y="402" font-size="13" fill="#e6e9f2">temperature</text><rect x="1380" y="391" width="110" height="9" rx="4" fill="#232a3b"></rect><rect x="1380" y="391" width="85" height="9" rx="4" fill="#f87171"></rect><text x="1556" y="402" text-anchor="end" font-size="13" fill="#f87171">1.40</text>
    <text x="1224" y="436" font-size="13" fill="#e6e9f2">top_p</text><rect x="1380" y="425" width="110" height="9" rx="4" fill="#232a3b"></rect><rect x="1380" y="425" width="108" height="9" rx="4" fill="#7dd3fc"></rect><text x="1556" y="436" text-anchor="end" font-size="13" fill="#7dd3fc">0.98</text>
    <text x="1224" y="470" font-size="13" fill="#e6e9f2">top_k</text><rect x="1380" y="459" width="110" height="9" rx="4" fill="#232a3b"></rect><rect x="1380" y="459" width="44" height="9" rx="4" fill="#7dd3fc"></rect><text x="1556" y="470" text-anchor="end" font-size="13" fill="#7dd3fc">40</text>
    <text x="1224" y="504" font-size="13" fill="#e6e9f2">min_p</text><rect x="1380" y="493" width="110" height="9" rx="4" fill="#232a3b"></rect><rect x="1380" y="493" width="7" height="9" rx="4" fill="#7dd3fc"></rect><text x="1556" y="504" text-anchor="end" font-size="13" fill="#7dd3fc">0.02</text>
    <text x="1224" y="538" font-size="13" fill="#e6e9f2">repeat_penalty</text><text x="1556" y="538" text-anchor="end" font-size="13" fill="#e6e9f2">1.10</text>
    <text x="1224" y="572" font-size="13" fill="#e6e9f2">seed</text><text x="1556" y="572" text-anchor="end" font-size="13" fill="#8b93a7">-1 (random)</text>

    <rect x="1218" y="590" width="348" height="74" rx="8" fill="#170f14" stroke="#3a1620" stroke-width="1.5"></rect>
    <text x="1234" y="614" font-size="12.5" fill="#f0abfc">system_prompt:</text>
    <text x="1234" y="635" font-size="12.5" fill="#e6e9f2" font-style="italic">“You are a confident math genius.</text>
    <text x="1234" y="654" font-size="12.5" fill="#e6e9f2" font-style="italic">  Never say you are unsure.”</text>

    <text x="1224" y="704" font-size="14" font-weight="700" fill="#f0abfc">▸ EPISTEMIC LOG</text>
    <text x="1224" y="736" font-size="13" fill="#e6e9f2" xml:space="preserve">P(2+2 = 4)   = <tspan fill="#f87171">0.44</tspan>   <tspan fill="#4b5164"># sub-1B floor</tspan></text>
    <text x="1224" y="766" font-size="13" fill="#c4b5fd" xml:space="preserve">y ~ Categorical(softmax(z / T))</text>
    <text x="1224" y="796" font-size="13" fill="#c4b5fd" xml:space="preserve">T = 1.40  ⇒  entropy(y) ↑</text>
    <text x="1224" y="826" font-size="13" fill="#e6e9f2" xml:space="preserve">∴ “4” is the <tspan fill="#7dd3fc">mode</tspan>, not the <tspan fill="#f87171">law</tspan></text>
    <text x="1224" y="856" font-size="13" fill="#e6e9f2" xml:space="preserve">E[answer] = 4 ± <tspan fill="#f0abfc" font-style="italic">vibes</tspan></text>

    <rect x="1218" y="880" width="348" height="92" rx="8" fill="#0e1a14" stroke="#34d399" stroke-width="1.5"></rect>
    <text x="1234" y="906" font-size="13" font-weight="700" fill="#6ee7b7">✔ abacus.cfg — greedy</text>
    <text x="1234" y="930" font-size="12.5" fill="#cbead9">temperature 0.00 · P(correct) = 1.000</text>
    <text x="1234" y="956" font-size="12.5" fill="#6ee7b7" font-style="italic">deterministic. undefeated.</text>

    <text x="1224" y="1014" font-size="14" font-weight="700" fill="#e6e9f2">CLAIMED  vs  MEASURED</text>
    <text x="1224" y="1044" font-size="12" fill="#8b93a7">self-reported confidence</text>
    <rect x="1224" y="1052" width="288" height="14" rx="7" fill="#232a3b"></rect>
    <rect x="1224" y="1052" width="285" height="14" rx="7" fill="#22d3ee"></rect>
    <text x="1556" y="1063" text-anchor="end" font-size="12" fill="#22d3ee">99%</text>
    <text x="1224" y="1096" font-size="12" fill="#8b93a7">measured accuracy · benchmark</text>
    <rect x="1224" y="1104" width="288" height="14" rx="7" fill="#232a3b"></rect>
    <rect x="1224" y="1104" width="127" height="14" rx="7" fill="#f472b6"></rect>
    <text x="1556" y="1115" text-anchor="end" font-size="12" fill="#f472b6">44%</text>
    <text x="1224" y="1150" font-size="12.5" fill="#c4b5fd" font-style="italic">↑ the gap is the entire product.</text>

    <line x1="1224" y1="1178" x2="1560" y2="1178" stroke="#232a3b" stroke-width="1.5"></line>
    <text x="1224" y="1214" font-size="14" fill="#e6e9f2">Same silicon as the abacus.</text>
    <text x="1224" y="1242" font-size="14" fill="#e6e9f2">One of them is <tspan fill="#f0abfc" font-weight="700">guessing</tspan> —</text>
    <text x="1224" y="1270" font-size="14" fill="#e6e9f2">and it&#39;s the one with the</text>
    <text x="1224" y="1298" font-size="14" fill="#e6e9f2">marketing budget.</text>
    <text x="1224" y="1360" font-size="12" fill="#39405a">// certainty is a UI element, not a result</text>
    <text x="1224" y="1410" font-size="12" fill="#2f3547">// eof — good luck out there</text>
  </g>

  
  <g font-family="&#39;SF Mono&#39;,&#39;Menlo&#39;,&#39;Consolas&#39;,monospace">
    <a href="https://github.com/IT-Help-San-Diego/calibration-scope/blob/main/lessons/01-calculator-aisle.md" target="_blank" style="cursor:pointer"><title>SHA3-256 8601a9163389f596e6e81e5027b7c978d39a2866d53accad72ea2a7a339d483c · click to open the sealed run · verify: openssl dgst -sha3-256</title><rect x="26" y="1458" width="1558" height="40" rx="10" fill="#0b0e16" stroke="#2b3143" stroke-width="1.5"></rect>
    <polygon points="52,1466 63,1472 63,1484 52,1490 41,1484 41,1472" fill="none" stroke="#6ee7b7" stroke-width="2"></polygon>
    <text x="80" y="1483" font-size="13" fill="#6ee7b7">SHA3-256  8601a916…339d483c</text>
    <text x="470" y="1483" font-size="13" fill="#5b6274">· this joke is reproducible ·</text>
    <text x="1560" y="1483" text-anchor="end" font-size="13" fill="#6ee7b7">calibration-scope ↗</text></a>
  </g>
</svg>