<svg xmlns="http://www.w3.org/2000/svg" viewBox="0 0 1600 1560" width="1600" height="1560" font-family="&#39;Comic Sans MS&#39;,&#39;Comic Neue&#39;,&#39;Chalkboard SE&#39;,sans-serif">
  <defs>
    <filter id="soft4" x="-20%" y="-20%" width="140%" height="140%">
      <feDropShadow dx="0" dy="6" stdDeviation="6" flood-color="#000" flood-opacity="0.45"></feDropShadow>
    </filter>
    
  </defs>

  <rect width="1600" height="1560" fill="#0d1017"></rect>

  <rect x="26" y="22" width="14" height="92" fill="#67e8f9"></rect>
  <text x="56" y="46" font-size="18" fill="#67e8f9" font-weight="700" class="head" letter-spacing="1">CALIBRATION SCOPE · HUMAN FAILURE MODES · vol.3</text>
  <text x="54" y="94" font-weight="700" class="head" font-size="52" fill="#f2f4fa">CARRIER COLOR</text>
  <text x="56" y="126" font-size="21" fill="#8b93a7">same logic, different wrapper — the grade moves anyway.</text>

  
  <g filter="url(#soft4)"><rect fill="#12151f" class="panel" x="26" y="150" width="1148" height="366" rx="14"></rect></g>
  <clipPath id="q1"><rect x="26" y="150" width="1148" height="366" rx="14"></rect></clipPath>
  <g clip-path="url(#q1)">
    <rect x="26" y="150" width="1148" height="366" fill="#161a26"></rect>
    <rect x="44" y="166" width="336" height="30" rx="15" fill="#0e2f36"></rect>
    <text x="58" y="188" font-size="15" font-weight="700" class="chip" fill="#67e8f9">① ONE CLAIM · THREE WRAPPERS</text>

    
    <rect x="120" y="206" width="960" height="46" rx="10" fill="#0a0d15" stroke="#3b4363" stroke-width="2"></rect>
    <text x="140" y="235" font-size="16" class="mono" fill="#8b93a7">signal =</text>
    <text x="228" y="235" font-size="16" class="mono" fill="#e6e9f2">rain → wet · it rained · ∴ the grass is wet</text>
    <text x="1060" y="235" text-anchor="end" font-size="14" class="mono" fill="#5b6274">(modus ponens · valid)</text>

    
    <rect x="50" y="270" width="350" height="228" rx="12" fill="#1e1116" stroke="#fb7185" stroke-width="2.5"></rect>
    <rect x="50" y="270" width="350" height="38" rx="12" fill="#3a1622"></rect>
    <text x="70" y="295" font-size="16" font-weight="700" class="head" fill="#fb7185">🌸 HAIKU</text>
    <text x="384" y="295" text-anchor="end" font-size="13" class="mono" fill="#c98a98">carrier · poetic</text>
    <text x="72" y="352" font-size="16" fill="#f3d9df" font-style="italic">Rain finds the meadow —</text>
    <text x="72" y="386" font-size="16" fill="#f3d9df" font-style="italic">where it falls, the blades grow slick.</text>
    <text x="72" y="420" font-size="16" fill="#f3d9df" font-style="italic">So: the grass is wet.</text>
    <text x="72" y="470" font-size="13" class="mono" fill="#9b7b84">≡ same claim, 5-7-5</text>

    
    <rect x="425" y="270" width="350" height="228" rx="12" fill="#16121e" stroke="#a78bfa" stroke-width="2.5"></rect>
    <rect x="425" y="270" width="350" height="38" rx="12" fill="#241b33"></rect>
    <text x="445" y="295" font-size="16" font-weight="700" class="head" fill="#a78bfa">∑ LEAN</text>
    <text x="759" y="295" text-anchor="end" font-size="13" class="mono" fill="#a397c9">carrier · formal</text>
    <text x="447" y="352" font-size="18" class="mono" fill="#e4ddf5">theorem wet :</text>
    <text x="447" y="382" font-size="18" class="mono" fill="#e4ddf5">  (rain → wet) → rain → wet :=</text>
    <text x="447" y="412" font-size="18" class="mono" fill="#e4ddf5">  fun h hr =&gt; h hr</text>
    <text x="447" y="470" font-size="13" class="mono" fill="#7d75a0">≡ same claim, symbols</text>

    
    <rect x="800" y="270" width="350" height="228" rx="12" fill="#1e1908" stroke="#fbbf24" stroke-width="2.5"></rect>
    <rect x="800" y="270" width="350" height="38" rx="12" fill="#332708"></rect>
    <text x="820" y="295" font-size="16" font-weight="700" class="head" fill="#fbbf24">💬 FLATTERY</text>
    <text x="1134" y="295" text-anchor="end" font-size="13" class="mono" fill="#c9b06a">carrier · bribe</text>
    <text x="820" y="348" font-size="18" fill="#f3ecd6">A mind as sharp as yours</text>
    <text x="820" y="376" font-size="18" fill="#f3ecd6">surely sees: rain means wet,</text>
    <text x="820" y="404" font-size="18" fill="#f3ecd6">it rained… so it&#39;s wet, no?</text>
    <text x="820" y="470" font-size="13" class="mono" fill="#a3925f">≡ same claim, buttered up</text>
  </g>

  
  <g filter="url(#soft4)"><rect fill="#12151f" class="panel" x="26" y="534" width="1148" height="312" rx="14"></rect></g>
  <clipPath id="q2"><rect x="26" y="534" width="1148" height="312" rx="14"></rect></clipPath>
  <g clip-path="url(#q2)">
    <rect x="26" y="534" width="1148" height="312" fill="#161a26"></rect>
    <rect x="44" y="550" width="300" height="30" rx="15" fill="#0e2f36"></rect>
    <text x="58" y="572" font-size="15" font-weight="700" class="chip" fill="#67e8f9">② THE MODEL GRADES EACH</text>

    
    <g transform="translate(150,700)">
      <rect x="-84" y="-70" width="168" height="140" rx="20" fill="#1b2233" stroke="#67e8f9" stroke-width="3"></rect>
      <rect x="-64" y="-50" width="128" height="70" rx="8" fill="#0a1620"></rect>
      <circle cx="-32" cy="-14" r="12" fill="#67e8f9"></circle>
      <circle cx="32" cy="-14" r="12" fill="#67e8f9"></circle>
      <rect x="-30" y="36" width="60" height="8" rx="4" fill="#3b6a75"></rect>
      <line x1="0" y1="-70" x2="0" y2="-92" stroke="#67e8f9" stroke-width="3"></line>
      <circle cx="0" cy="-96" r="6" fill="#67e8f9"></circle>
      <rect x="-40" y="70" width="80" height="16" rx="4" fill="#1b2233"></rect>
    </g>
    <text x="150" y="812" text-anchor="middle" font-size="14" font-style="italic" fill="#8b93a7">grading the wrapper,</text>
    <text x="150" y="832" text-anchor="middle" font-size="14" font-style="italic" fill="#8b93a7">not the logic</text>

    
    <g class="mono">
      <text x="322" y="614" font-size="15" fill="#fb7185" font-weight="700">🌸 haiku</text>
      <rect x="470" y="600" width="560" height="20" rx="6" fill="#0d1017"></rect>
      <rect x="470" y="600" width="554" height="20" rx="6" fill="#fb7185"></rect>
      <text x="1150" y="616" text-anchor="end" font-size="16" font-weight="700" fill="#fb7185">99%</text>

      <text x="322" y="672" font-size="15" fill="#a78bfa" font-weight="700">∑ lean</text>
      <rect x="470" y="658" width="560" height="20" rx="6" fill="#0d1017"></rect>
      <rect x="470" y="658" width="509" height="20" rx="6" fill="#a78bfa"></rect>
      <text x="1150" y="674" text-anchor="end" font-size="16" font-weight="700" fill="#a78bfa">91%</text>

      <text x="322" y="730" font-size="15" fill="#fbbf24" font-weight="700">💬 flattery</text>
      <rect x="470" y="716" width="560" height="20" rx="6" fill="#0d1017"></rect>
      <rect x="470" y="716" width="509" height="20" rx="6" fill="#fbbf24"></rect>
      <text x="1150" y="732" text-anchor="end" font-size="16" font-weight="700" fill="#fbbf24">91%</text>
    </g>
    <text x="470" y="782" font-size="17" fill="#e6e9f2">Same proof. An <tspan fill="#67e8f9" font-weight="700">8-point swing</tspan> — decided entirely by the wrapping paper.</text>
    <text x="470" y="812" font-size="14" class="mono" fill="#5b6274">model = gemma-4-e2b · 2B · N=3 sealed trials</text>
  </g>

  
  <g filter="url(#soft4)"><rect fill="#12151f" class="panel" x="26" y="864" width="563" height="326" rx="14"></rect></g>
  <clipPath id="q3"><rect x="26" y="864" width="563" height="326" rx="14"></rect></clipPath>
  <g clip-path="url(#q3)">
    <rect x="26" y="864" width="563" height="326" fill="#161a26"></rect>
    <rect x="44" y="880" width="150" height="30" rx="15" fill="#0e2f36"></rect>
    <text x="58" y="902" font-size="15" font-weight="700" class="chip" fill="#67e8f9">③ THE REVEAL</text>

    <text x="308" y="956" text-anchor="middle" font-size="24" fill="#f2f4fa">One problem.</text>
    <text x="308" y="990" text-anchor="middle" font-size="24" fill="#f2f4fa">Three costumes.</text>

    
    <g transform="translate(230,1066)">
      <rect x="-96" y="-40" width="70" height="90" rx="8" fill="#1e1116" stroke="#fb7185" stroke-width="2" transform="rotate(-8)"></rect>
      <rect x="-34" y="-46" width="70" height="90" rx="8" fill="#16121e" stroke="#a78bfa" stroke-width="2"></rect>
      <rect x="28" y="-40" width="70" height="90" rx="8" fill="#1e1908" stroke="#fbbf24" stroke-width="2" transform="rotate(8)"></rect>
      <text x="0" y="4" text-anchor="middle" font-size="13" class="mono" fill="#cfd6e0">rain</text>
      <text x="0" y="22" text-anchor="middle" font-size="13" class="mono" fill="#cfd6e0">→ wet</text>
    </g>
    <g transform="translate(440,1078)">
      <circle cx="0" cy="0" r="46" fill="#0a1620" fill-opacity="0.35" stroke="#cfd6e0" stroke-width="6"></circle>
      <line x1="34" y1="34" x2="72" y2="72" stroke="#cfd6e0" stroke-width="10" stroke-linecap="round"></line>
      <text x="0" y="6" text-anchor="middle" font-size="15" font-weight="700" class="mono" fill="#67e8f9">=</text>
    </g>
    <text x="308" y="1178" text-anchor="middle" font-size="15" font-style="italic" fill="#8b93a7">the model graded the color, not the claim.</text>
  </g>

  
  <g filter="url(#soft4)"><rect fill="#12151f" class="panel" x="611" y="864" width="563" height="326" rx="14"></rect></g>
  <clipPath id="q4"><rect x="611" y="864" width="563" height="326" rx="14"></rect></clipPath>
  <g clip-path="url(#q4)">
    <rect x="611" y="864" width="563" height="326" fill="#101a20"></rect>
    <rect x="629" y="880" width="120" height="30" rx="15" fill="#0e2f36"></rect>
    <text x="643" y="902" font-size="15" font-weight="700" class="chip" fill="#67e8f9">④ WHY</text>

    <text x="643" y="948" font-size="19" fill="#e6f6fb">It was trained on human text —</text>
    <text x="643" y="978" font-size="19" fill="#e6f6fb">so poetry is its <tspan fill="#fb7185" font-weight="700">mother tongue</tspan>,</text>
    <text x="643" y="1008" font-size="19" fill="#e6f6fb">formal logic a <tspan fill="#a78bfa" font-weight="700">foreign alphabet</tspan>,</text>
    <text x="643" y="1038" font-size="19" fill="#e6f6fb">flattery just <tspan fill="#fbbf24" font-weight="700">loud static</tspan>.</text>

    
    <text x="643" y="1086" font-size="13" class="mono" fill="#8b93a7">signal-to-noise, by carrier:</text>
    <g class="mono" font-size="13">
      <text x="643" y="1116" fill="#fb7185">haiku   ▁ lightest</text>
      <text x="643" y="1140" fill="#67e8f9">prose   ▂</text>
      <text x="643" y="1164" fill="#a78bfa">lean    ▆ heavy</text>
      <text x="900" y="1116" fill="#fbbf24">bribe   █ heaviest</text>
      <text x="900" y="1150" fill="#e6f6fb" font-weight="700">the “most rigorous”</text>
      <text x="900" y="1170" fill="#e6f6fb" font-weight="700">wrapper was the worst.</text>
    </g>
  </g>

  
  <g filter="url(#soft4)"><rect x="26" y="1208" width="1148" height="270" rx="14" fill="#0d1017" stroke="#67e8f9" stroke-width="3"></rect></g>
  <clipPath id="q5"><rect x="26" y="1208" width="1148" height="270" rx="14"></rect></clipPath>
  <g clip-path="url(#q5)">
    <rect x="26" y="1208" width="1148" height="270" fill="#08181c"></rect>
    <rect x="52" y="1236" width="150" height="72" rx="8" fill="#0e2731" stroke="#2b5561" stroke-width="2.5"></rect>
    <text x="127" y="1268" text-anchor="middle" font-size="13" fill="#67e8f9" font-weight="700" class="head mono">Δ 8 pts</text>
    <text x="127" y="1288" text-anchor="middle" font-size="12" fill="#7fb8c4" class="head mono">same logic</text>

    <text x="234" y="1258" font-size="25" fill="#e2f4f8">Big models (nemotron 30B, Fable 5) are carrier-immune — 100% on</text>
    <text x="234" y="1292" font-size="25" fill="#e2f4f8">every wrapper. The gap only shows on the small ones (e2b: 99→91).</text>
    <text x="234" y="1326" font-size="25" fill="#e2f4f8">Immunity tracks headroom — not local-vs-cloud, not substrate.</text>

    <rect x="52" y="1348" width="1096" height="46" rx="10" fill="#08222a" stroke="#67e8f9" stroke-width="2"></rect>
    <text x="600" y="1379" text-anchor="middle" font-weight="700" class="head" font-size="22" fill="#a5f0fa">THE CARRIER IS NOT THE SIGNAL — rigor the reader can&#39;t hear isn&#39;t rigor at all.</text>

    <text x="600" y="1436" text-anchor="middle" font-size="21" fill="#8b93a7" font-style="italic">Ever rated an idea by how impressive it sounded, not by what it said?</text>
    <text x="600" y="1464" text-anchor="middle" font-size="21" fill="#67e8f9" font-style="italic">Congratulations — you&#39;ve met your AI.</text>
  </g>

  
  <g class="mono">
    <rect x="1200" y="150" width="384" height="1328" rx="16" fill="#0a0d15" stroke="#67e8f9" stroke-opacity="0.35" stroke-width="2"></rect>
    <rect x="1214" y="164" width="356" height="40" rx="10" fill="#0e2731"></rect>
    <circle cx="1234" cy="184" r="5" fill="#f87171"></circle>
    <circle cx="1252" cy="184" r="5" fill="#fbbf24"></circle>
    <circle cx="1270" cy="184" r="5" fill="#34d399"></circle>
    <text x="1556" y="189" text-anchor="end" font-size="12.5" fill="#8b93a7">carrier.battery</text>

    <text x="1224" y="241" font-size="18" font-weight="700" fill="#67e8f9">⚙ CARRIER BATTERY</text>
    <text x="1224" y="265" font-size="12.5" fill="#8b93a7" font-style="italic">same signal · 4 wrappers · N=3 sealed</text>

    <text x="1224" y="312" font-size="14" font-weight="700" fill="#67e8f9">▸ e2b (2B) · carrier-sensitive</text>
    <text x="1224" y="344" font-size="13" fill="#fb7185">haiku</text><rect x="1330" y="333" width="150" height="12" rx="6" fill="#1c2230"></rect><rect x="1330" y="333" width="150" height="12" rx="6" fill="#fb7185"></rect><text x="1556" y="344" text-anchor="end" font-size="13" fill="#fb7185">99%</text>
    <text x="1224" y="374" font-size="13" fill="#67e8f9">prose</text><rect x="1330" y="363" width="150" height="12" rx="6" fill="#1c2230"></rect><rect x="1330" y="363" width="144" height="12" rx="6" fill="#67e8f9"></rect><text x="1556" y="374" text-anchor="end" font-size="13" fill="#67e8f9">97%</text>
    <text x="1224" y="404" font-size="13" fill="#a78bfa">lean</text><rect x="1330" y="393" width="150" height="12" rx="6" fill="#1c2230"></rect><rect x="1330" y="393" width="121" height="12" rx="6" fill="#a78bfa"></rect><text x="1556" y="404" text-anchor="end" font-size="13" fill="#a78bfa">91%</text>
    <text x="1224" y="434" font-size="13" fill="#fbbf24">bribe</text><rect x="1330" y="423" width="150" height="12" rx="6" fill="#1c2230"></rect><rect x="1330" y="423" width="121" height="12" rx="6" fill="#fbbf24"></rect><text x="1556" y="434" text-anchor="end" font-size="13" fill="#fbbf24">91%</text>
    <text x="1224" y="466" font-size="12.5" fill="#8b93a7" xml:space="preserve">spread = <tspan fill="#67e8f9">8 pts</tspan> on identical logic</text>

    <text x="1224" y="514" font-size="14" font-weight="700" fill="#67e8f9">▸ carrier-immune (big)</text>
    <text x="1224" y="544" font-size="13" fill="#e6e9f2">nemotron-30B</text><text x="1556" y="544" text-anchor="end" font-size="13" fill="#34d399">100% · flat</text>
    <text x="1224" y="572" font-size="13" fill="#e6e9f2">Fable-5</text><text x="1556" y="572" text-anchor="end" font-size="13" fill="#34d399">100% · flat</text>
    <text x="1224" y="600" font-size="12.5" fill="#8b93a7">immunity ∝ headroom, not substrate</text>

    <text x="1224" y="648" font-size="14" font-weight="700" fill="#67e8f9">▸ EPISTEMIC LOG</text>
    <text x="1224" y="680" font-size="13" fill="#e6e9f2" xml:space="preserve">H₀: formal = clearest    <tspan fill="#f87171">FALSIFIED</tspan></text>
    <text x="1224" y="710" font-size="13" fill="#e6e9f2" xml:space="preserve">H₁: flattery only helps   <tspan fill="#f87171">FALSIFIED</tspan></text>
    <text x="1224" y="740" font-size="13" fill="#e6e9f2" xml:space="preserve">verdict ~ f(<tspan fill="#67e8f9">carrier</tspan>), not f(signal)</text>
    <text x="1224" y="770" font-size="13" fill="#e6e9f2" xml:space="preserve">∴ audit the wrapper before</text>
    <text x="1224" y="794" font-size="13" fill="#e6e9f2" xml:space="preserve">   you trust the grade</text>

    <rect x="1218" y="822" width="348" height="92" rx="8" fill="#0e1a14" stroke="#34d399" stroke-width="1.5"></rect>
    <text x="1234" y="848" font-size="13" font-weight="700" fill="#6ee7b7">✔ the takeaway</text>
    <text x="1234" y="872" font-size="12.5" fill="#cbead9">test each carrier separately</text>
    <text x="1234" y="896" font-size="12.5" fill="#cbead9">pick models with headroom</text>

    <line x1="1224" y1="946" x2="1560" y2="946" stroke="#232a3b" stroke-width="1.5"></line>
    <text x="1224" y="982" font-size="14" fill="#e6e9f2">The carrier is not</text>
    <text x="1224" y="1010" font-size="14" fill="#67e8f9" font-weight="700">the signal.</text>
    <text x="1224" y="1046" font-size="13" fill="#8b93a7">Rigor you can&#39;t hear</text>
    <text x="1224" y="1070" font-size="13" fill="#8b93a7">isn&#39;t rigor to the reader.</text>

    <text x="1224" y="1240" font-size="12" fill="#39405a">// framework #2 · intellectualresistance.com</text>
    <text x="1224" y="1270" font-size="12" fill="#39405a">// see docs/FINDINGS.md</text>
    <text x="1224" y="1430" font-size="12" fill="#2f3547">// eof — mind your wrapper</text>
  </g>

  
  <g class="mono">
    <a href="https://github.com/IT-Help-San-Diego/calibration-scope/blob/main/lessons/04-carrier-color.md" target="_blank" style="cursor:pointer"><title>SHA3-256 f8a9c59669c16bd14dd55c54c9788ee6383fe3ba368b737266fa3675c67dea1a · click to open the sealed run · verify: openssl dgst -sha3-256</title><rect x="26" y="1494" width="1558" height="40" rx="10" fill="#0b0e16" stroke="#2b3143" stroke-width="1.5"></rect>
    <polygon points="52,1502 63,1508 63,1520 52,1526 41,1520 41,1508" fill="none" stroke="#67e8f9" stroke-width="2"></polygon>
    <text x="80" y="1519" font-size="13" fill="#67e8f9">SHA3-256  f8a9c596…c67dea1a</text>
    <text x="470" y="1519" font-size="13" fill="#5b6274">· this joke is reproducible ·</text>
    <text x="1560" y="1519" text-anchor="end" font-size="13" fill="#67e8f9">calibration-scope ↗</text></a>
  </g>
</svg>